<svg xmlns="http://www.w3.org/2000/svg" viewBox="0 0 303 163"><path d="M5.635 42.75L62.95 9.69a10.98 10.98 0 0 1 10.968 0l57.314 33.06a11.03 11.03 0 0 1 5.51 9.527v66.172c0 3.913-2.11 7.57-5.51 9.526l-57.314 33.06a10.98 10.98 0 0 1-10.97 0l-57.313-33.06a11.03 11.03 0 0 1-5.51-9.527V52.275c.05-3.965 2.11-7.57 5.51-9.526z" fill="#008ccc"/><path d="M5.635 35.025L62.95 1.965a10.98 10.98 0 0 1 10.968 0l57.314 33.06a11.03 11.03 0 0 1 5.51 9.527v66.172c0 3.914-2.11 7.57-5.51 9.527l-57.314 33.06a10.98 10.98 0 0 1-10.97 0L5.636 120.25a11.03 11.03 0 0 1-5.51-9.527V44.5c.05-3.913 2.11-7.518 5.51-9.475z" fill="#00a9e6"/><g fill="#00a1df"><path d="M172.892 127.975h-5.253v4.223h4.943v1.493h-4.944v5.46h-1.803v-12.668h7.003v1.493h.052zM187.156 139.15h-2.163l-3.296-5.46h-1.34v5.46h-1.8v-12.67h3.552c1.286 0 2.265.31 3.037.876.772.618 1.236 1.545 1.236 2.678 0 2.214-1.545 3.193-2.884 3.45l3.656 5.665zm-3.347-10.712c-.567-.412-1.237-.463-2.112-.463h-1.287v4.274h1.288c.875 0 1.545-.052 2.11-.464.567-.412.825-.927.825-1.7-.05-.72-.257-1.236-.824-1.648zM202.657 139.15H200.7l-1.287-3.297h-5.407l-1.287 3.296h-1.855l5.15-12.67h1.545l5.097 12.67zm-3.76-4.79l-2.214-5.664-2.214 5.664h4.427zM221.143 139.15h-1.75l-.825-9.99h-.05l-3.863 10.092h-1.03l-3.862-10.093h-.05l-.825 9.99h-1.75l1.132-12.67h2.214l3.656 9.785h.05l3.657-9.784h2.163l1.133 12.67zM234.584 139.15h-7.57v-12.67h7.415v1.494h-5.614v3.76h5.304v1.492h-5.304v4.377h5.767v1.546zM255.954 126.533l-3.656 12.668h-1.75l-3.04-10.247-3.037 10.248h-1.75l-3.656-12.667h1.854l2.73 9.99 2.934-9.99h1.802l2.935 9.99 2.728-9.99h1.906zM266.562 139.355c-3.553 0-6.54-2.472-6.54-6.54s2.987-6.54 6.54-6.54 6.54 2.472 6.54 6.54-2.986 6.54-6.54 6.54zm0-11.483c-2.575 0-4.686 1.854-4.686 4.944s2.163 4.944 4.686 4.944c2.575 0 4.686-1.854 4.686-4.944s-2.11-4.944-4.686-4.944zM287.367 139.15h-2.163l-3.296-5.46h-1.34v5.46h-1.8v-12.67h3.552c1.287 0 2.266.31 3.038.876.772.618 1.236 1.545 1.236 2.678 0 2.214-1.545 3.193-2.884 3.45l3.657 5.665zm-3.348-10.712c-.567-.412-1.237-.463-2.112-.463h-1.287v4.274h1.288c.875 0 1.545-.052 2.11-.464.567-.412.825-.927.825-1.7 0-.72-.257-1.236-.824-1.648zM301.837 139.15h-2.163l-4.17-6.335-1.288 1.34v5.046h-1.802v-12.667h1.802v5.407l5.15-5.407h2.163l-4.842 4.995 5.15 7.62z"/></g><g fill="#000"><path d="M187.93 40.432h-20.29v75.08h11.175V85.954h9.115c3.038 0 5.51 2.523 5.51 5.613v23.945h11.175V91.567c0-4.274-1.596-8.188-4.274-11.175 2.627-2.987 4.275-6.9 4.275-11.175V57.27c.05-9.32-7.468-16.838-16.686-16.838zm-9.116 34.348V51.607h9.115c3.037 0 5.51 2.523 5.51 5.613v11.947c0 3.09-2.473 5.613-5.51 5.613h-9.116zM215.48 41.153h11.174v74.36H215.48zM248.693 41.153H237.52v74.36h28.064v-11.175h-16.89zM282.68 104.338V41.153h-11.174v74.36h28.065v-11.175z"/></g><path d="M103.167 75.295h-8.445v-9.68c0-7.57-6.128-13.7-13.646-13.7H72.63V9.486c-2.625-1.082-5.612-1.134-8.29-.052v22.092h-8.445c-7.518 0-13.646 6.128-13.646 13.698v25.8h-8.446c-7.518 0-13.646 6.127-13.646 13.697v43.926l8.29 4.79V84.717c0-2.987 2.42-5.407 5.357-5.407h8.445v62.104l8.29 4.79V45.273c0-2.988 2.42-5.408 5.357-5.408h8.445V154.03c2.678 1.082 5.613 1.03 8.29-.05V60.258h8.446c2.935 0 5.356 2.42 5.356 5.407V146.1l8.29-4.788V83.637h8.446c2.935 0 5.356 2.42 5.356 5.407v44.338l8.29-4.79V89.045c-.054-7.57-6.13-13.75-13.65-13.75z" fill="#008ccc"/><path d="M103.167 67.107h-8.445v-9.68c0-7.57-6.128-13.7-13.646-13.7H72.63V1.298C70.006.214 67.02.162 64.34 1.244v22.04h-8.445c-7.518 0-13.646 6.128-13.646 13.698v25.8h-8.446c-7.518 0-13.646 6.127-13.646 13.697v52.165l2.37 9.115 8.29 4.79-2.37-9.116V76.48c0-2.988 2.42-5.408 5.357-5.408h8.445v70.343l2.37 9.115 8.29 4.79-2.37-9.116V37.034c0-2.987 2.42-5.407 5.357-5.407h8.445v130.13c2.678 1.08 5.613 1.03 8.29-.052V52.02h8.446c2.935 0 5.356 2.42 5.356 5.406V146.1l-1.648 8.704 8.29-4.79 1.65-8.702V75.398h8.444c2.935 0 5.356 2.42 5.356 5.407v52.525l-1.648 8.703 8.29-4.79 1.65-8.702V80.754c-.056-7.518-6.132-13.646-13.65-13.646z" fill="#FFF"/><path d="M131.335 120.2L74.02 153.26a10.98 10.98 0 0 1-10.968 0L5.738 120.2a11.03 11.03 0 0 1-5.51-9.528v7.724c0 3.914 2.11 7.57 5.51 9.527l57.314 33.06a10.98 10.98 0 0 0 10.97 0l57.313-33.06a11.03 11.03 0 0 0 5.51-9.527v-7.724c-.05 3.965-2.11 7.57-5.51 9.527z" opacity=".5" fill="#008ccc"/></svg>
